<svg xmlns="http://www.w3.org/2000/svg" width="51" height="52" fill="none"><path stroke="#111928" stroke-linecap="round" stroke-linejoin="round" stroke-width="2" d="M31.942 36.775h6.352a6.36 6.36 0 0 0 4.493-1.858 6.34 6.34 0 0 0 0-8.974 6.36 6.36 0 0 0-4.492-1.858h-.053c.031-.351.053-.704.053-1.058a11.62 11.62 0 0 0-2.881-7.626 11.66 11.66 0 0 0-15.146-2.073 11.63 11.63 0 0 0-4.83 6.571c-.148-.008-.287-.044-.438-.044a8.48 8.48 0 0 0-5.99 2.478 8.455 8.455 0 0 0 0 11.964A8.48 8.48 0 0 0 15 36.775h4.59m5.999 4.23V21.97m0 0-4.236 4.23m4.236-4.23 4.235 4.23"/></svg>