<svg xmlns="http://www.w3.org/2000/svg" width="51" height="52" fill="none"><path stroke="#111928" stroke-linecap="round" stroke-linejoin="round" stroke-width="2" d="M44.647 28.315v-4.23a2.114 2.114 0 0 0-2.117-2.115h-1.603l-1.497-3.61 1.133-1.134a2.114 2.114 0 0 0 0-2.99l-2.995-2.991a2.12 2.12 0 0 0-2.994 0l-1.135 1.131-3.615-1.495V9.28a2.114 2.114 0 0 0-2.118-2.115h-4.235a2.12 2.12 0 0 0-2.118 2.115v1.601l-3.615 1.495-1.135-1.131a2.12 2.12 0 0 0-2.994 0l-2.994 2.99a2.113 2.113 0 0 0 0 2.991l1.135 1.134-1.5 3.61H8.648a2.12 2.12 0 0 0-2.117 2.115v4.23a2.114 2.114 0 0 0 2.117 2.115h1.604l1.497 3.61-1.133 1.134a2.113 2.113 0 0 0 0 2.99l2.994 2.991a2.12 2.12 0 0 0 2.994 0l1.135-1.131 3.615 1.495v1.6a2.113 2.113 0 0 0 2.118 2.116h4.235a2.12 2.12 0 0 0 2.118-2.115v-1.601l3.615-1.498 1.135 1.134a2.12 2.12 0 0 0 2.994 0l2.995-2.99a2.114 2.114 0 0 0 0-2.991L39.43 34.04l1.497-3.61h1.603a2.12 2.12 0 0 0 2.117-2.115"/><path stroke="#111928" stroke-linecap="round" stroke-linejoin="round" stroke-width="2" d="M25.589 32.545a6.35 6.35 0 0 0 6.353-6.345 6.35 6.35 0 0 0-6.353-6.345 6.35 6.35 0 0 0-6.353 6.345 6.35 6.35 0 0 0 6.353 6.345"/></svg>