<svg xmlns="http://www.w3.org/2000/svg" width="100%" height="100%" viewBox="0 0 221 73" fill="currentColor" xmlns:v="https://vecta.io/nano"><path d="M52 62V15.455h33.546v10.182H64.636v8h19.182v10.182H64.636v8h20.818V62H52zm39.813 0V15.455h20.091c3.455 0 6.478.629 9.069 1.886s4.606 3.068 6.045 5.432 2.159 5.197 2.159 8.5c0 3.333-.742 6.144-2.227 8.432-1.47 2.288-3.538 4.015-6.205 5.182-2.651 1.167-5.75 1.75-9.295 1.75h-12v-9.818h9.454c1.485 0 2.75-.182 3.796-.545 1.06-.379 1.871-.977 2.432-1.795.575-.818.863-1.886.863-3.205 0-1.333-.288-2.417-.863-3.25-.561-.849-1.372-1.47-2.432-1.864-1.046-.409-2.311-.614-3.796-.614h-4.454V62H91.813zm27.272-21.364L130.722 62h-13.728l-11.363-21.364h13.454zm14.205-15V15.455h40.454v10.182h-14V62H147.29V25.636h-14zM203.591 30c-.121-1.515-.689-2.697-1.705-3.546-1-.848-2.522-1.273-4.568-1.273-1.303 0-2.371.159-3.204.477-.819.303-1.425.72-1.819 1.25s-.598 1.136-.613 1.818c-.03.561.068 1.068.295 1.523.243.439.621.841 1.137 1.204.515.349 1.174.667 1.977.955s1.757.545 2.864.773l3.818.818c2.575.545 4.78 1.265 6.613 2.159s3.334 1.947 4.5 3.159c1.167 1.197 2.023 2.545 2.569 4.045.56 1.5.848 3.136.863 4.909-.015 3.061-.78 5.651-2.295 7.773s-3.682 3.735-6.5 4.841c-2.803 1.106-6.175 1.659-10.114 1.659-4.045 0-7.576-.598-10.591-1.795-3-1.197-5.333-3.038-7-5.523-1.651-2.5-2.485-5.697-2.5-9.591h12c.076 1.424.432 2.621 1.068 3.591s1.531 1.705 2.682 2.205c1.167.5 2.553.75 4.159.75 1.349 0 2.478-.167 3.387-.5s1.598-.795 2.068-1.386a3.27 3.27 0 0 0 .727-2.023c-.015-.712-.25-1.333-.704-1.864-.44-.546-1.167-1.03-2.182-1.455-1.015-.439-2.387-.848-4.114-1.227l-4.636-1c-4.121-.894-7.371-2.386-9.75-4.477-2.364-2.106-3.538-4.977-3.523-8.614-.015-2.955.773-5.538 2.364-7.75 1.606-2.227 3.825-3.962 6.659-5.205 2.848-1.242 6.113-1.864 9.795-1.864 3.758 0 7.008.629 9.75 1.886s4.856 3.03 6.341 5.318c1.5 2.273 2.258 4.932 2.273 7.977h-12.091z" fill="currentcolorx"/><path d="M45.269 15.596v13.607L22.46 38.561v.472l22.809 9.36v13.606H5V51.303h23.281v-.315L5.315 42.022v-6.449l23.123-8.966v-.315H5V15.596h40.269z"/></svg>