<svg xmlns="http://www.w3.org/2000/svg" width="51" height="52" fill="none"><path stroke="#111928" stroke-linecap="round" stroke-linejoin="round" stroke-width="2" d="M25.589 15.625h.02m7.384 3.2h.021m-14.777 0h.021M14.98 26.2H15m19.06 8.46h5.73a4.15 4.15 0 0 0 3.987-2.802 19.01 19.01 0 0 0-2.285-16.16 19.075 19.075 0 0 0-29.373-2.986A19.03 19.03 0 0 0 6.621 28.08a19.23 19.23 0 0 0 3.475 9.044 19.27 19.27 0 0 0 7.445 6.208 18.3 18.3 0 0 0 7.982 1.903 4.27 4.27 0 0 0 3.965-2.6 4.3 4.3 0 0 0 .336-1.63v-1.812a4.3 4.3 0 0 1 2.554-4.164 4.3 4.3 0 0 1 1.681-.369Z"/></svg>