<svg xmlns="http://www.w3.org/2000/svg" width="51" height="52" fill="none"><path stroke="#111928" stroke-linecap="round" stroke-linejoin="round" stroke-width="2" d="M36.177 17.74H10.765m25.412 0c1.17 0 2.117.947 2.117 2.115v5.499m-2.117-7.614-8.47-8.46m-16.942 8.46c-1.17 0-2.118.947-2.118 2.115v21.15c0 1.168.949 2.115 2.118 2.115h25.412c1.17 0 2.117-.947 2.117-2.115v-5.5M10.765 17.74l8.47-8.46 8.471 8.46m12.706 8.46h-8.47a4.233 4.233 0 0 0-4.236 4.23 4.233 4.233 0 0 0 4.236 4.23h8.47c1.17 0 2.118-.947 2.118-2.115v-4.23a2.116 2.116 0 0 0-2.118-2.115"/></svg>